<svg width="150" height="150" viewBox="0 0 150 150" fill="none" xmlns="http://www.w3.org/2000/svg">
    <path opacity="0.6"
        d="M87.5 100C87.5 111.062 82.6875 121.062 75 127.875C68.375 133.875 59.625 137.5 50 137.5C29.3125 137.5 12.5 120.688 12.5 100C12.5 82.75 24.25 68.125 40.125 63.8125C44.4375 74.6875 53.6875 83.0625 65.125 86.1875C68.25 87.0625 71.5625 87.5 75 87.5C78.4375 87.5 81.75 87.0625 84.875 86.1875C86.5625 90.4375 87.5 95.125 87.5 100Z"
        fill="#5030E5" />
    <path
        d="M112.5 50C112.5 54.875 111.562 59.5625 109.875 63.8125C105.562 74.6875 96.3125 83.0625 84.875 86.1875C81.75 87.0625 78.4375 87.5 75 87.5C71.5625 87.5 68.25 87.0625 65.125 86.1875C53.6875 83.0625 44.4375 74.6875 40.125 63.8125C38.4375 59.5625 37.5 54.875 37.5 50C37.5 29.3125 54.3125 12.5 75 12.5C95.6875 12.5 112.5 29.3125 112.5 50Z"
        fill="#5030E5" />
    <path opacity="0.4"
        d="M137.5 100C137.5 120.688 120.688 137.5 100 137.5C90.375 137.5 81.625 133.875 75 127.875C82.6875 121.062 87.5 111.062 87.5 100C87.5 95.125 86.5625 90.4375 84.875 86.1875C96.3125 83.0625 105.562 74.6875 109.875 63.8125C125.75 68.125 137.5 82.75 137.5 100Z"
        fill="#5030E5" />
</svg>